<?xml version="1.0" encoding="utf-8"?>
<!-- Generator: Adobe Illustrator 17.0.0, SVG Export Plug-In . SVG Version: 6.00 Build 0)  -->
<!DOCTYPE svg PUBLIC "-//W3C//DTD SVG 1.1//EN" "http://www.w3.org/Graphics/SVG/1.1/DTD/svg11.dtd">
<svg version="1.1" id="Layer_1" xmlns="http://www.w3.org/2000/svg" xmlns:xlink="http://www.w3.org/1999/xlink" x="0px" y="0px"
	 width="64px" height="10px" viewBox="0 0 64 10" enable-background="new 0 0 64 10" xml:space="preserve">
<g>
	<path fill="#0072BC" d="M63.873,8.918c0,0.21-0.081,0.406-0.23,0.552c-0.157,0.154-0.353,0.235-0.568,0.235
		c-0.204,0-0.403-0.084-0.554-0.238s-0.235-0.35-0.235-0.557s0.087-0.412,0.244-0.568c0.146-0.148,0.342-0.227,0.554-0.227
		c0.218,0,0.414,0.081,0.566,0.238C63.794,8.501,63.873,8.697,63.873,8.918L63.873,8.918z M63.081,7.998
		c-0.246,0-0.468,0.09-0.636,0.26c-0.179,0.179-0.277,0.414-0.277,0.655s0.092,0.465,0.269,0.641
		c0.176,0.179,0.403,0.274,0.647,0.274c0.238,0,0.47-0.098,0.65-0.272C63.904,9.388,64,9.163,64,8.911
		c0-0.244-0.098-0.47-0.263-0.641C63.556,8.09,63.326,7.998,63.081,7.998L63.081,7.998z M63.105,8.375h-0.389v1.036h0.196V8.969
		h0.193l0.21,0.442h0.218l-0.232-0.473c0.151-0.031,0.238-0.132,0.238-0.277C63.536,8.473,63.394,8.375,63.105,8.375L63.105,8.375z
		 M63.069,8.505c0.182,0,0.266,0.05,0.266,0.179c0,0.123-0.084,0.165-0.26,0.165H62.91V8.507h0.16L63.069,8.505L63.069,8.505z"/>
	<path fill="#0072BC" d="M39.657,8.369c-0.773-0.09-0.725-0.641-0.725-1.257c0-0.185,0-2.203,0-2.735h1.632V3.07h-1.632V1.705
		h-1.845V3.07h-1.307v1.307h1.307v3.39c0,1.817,1.268,2.058,2.094,2.058c0.733,0,1.4-0.146,1.4-0.146s-0.006-1.333-0.006-1.439
		C40.219,8.359,39.976,8.406,39.657,8.369L39.657,8.369z"/>
	<path fill="#0072BC" d="M58.494,2.938c-0.91,0-1.75,0.204-2.57,0.624c-0.56-0.414-1.293-0.616-2.24-0.616
		c-0.918,0-2.388,0.213-3.351,0.487l-0.076,0.022v6.274h1.873V4.464c0.37-0.165,0.918-0.28,1.366-0.28
		c1.176,0,1.419,0.635,1.419,1.251V9.73h1.901V4.635c0.344-0.249,0.969-0.454,1.391-0.454c1.111,0,1.38,0.613,1.38,1.251v4.295
		h1.859V5.248C61.445,4.556,61.188,2.938,58.494,2.938L58.494,2.938z"/>
	<path fill="#0072BC" d="M16.319,3.07v5.319c-0.566,0.16-1.1,0.246-1.59,0.213c-1.019-0.07-1.305-0.35-1.305-1.503V3.07h-1.926
		c0,0-0.017,4.219,0,4.686c0.017,0.468-0.048,2.066,3.236,2.066c1.607,0,3.508-0.364,3.508-0.364V3.07H16.319L16.319,3.07z"/>
	<path fill="#0072BC" d="M23.187,2.949c-0.624,0-1.982,0.09-2.942,0.319c0,0.171,0,1.45,0,1.45s1.095-0.571,3.04-0.571
		c0.599,0,1.285,0.221,1.285,1.12c0,0.249-0.003,0.291-0.003,0.291S22.31,5.587,22.06,5.587c-1.414,0-2.494,0.798-2.469,2.086
		c0.034,1.666,1.624,2.125,3.13,2.125c2.483,0,3.704-0.342,3.704-0.342V4.89C26.429,3.743,25.462,2.949,23.187,2.949L23.187,2.949z
		 M24.569,8.389c-0.482,0.123-1.142,0.263-1.923,0.176c-0.666-0.073-1.291-0.23-1.291-0.885c0-0.476,0.302-0.871,1.512-0.871
		c0,0,1.324,0,1.705,0v1.579L24.569,8.389L24.569,8.389z"/>
	<path fill="#0072BC" d="M8.046,8.395c0-0.039,0-0.056,0-0.073C8.906,7.856,9.58,7.361,9.58,4.953c0-3.074-1.055-4.784-4.759-4.784
		c-3.74,0-4.821,1.767-4.821,4.784c0,3.245,1.235,4.821,4.821,4.821c0.081,0,5.697,0,5.697,0v-1.38L8.046,8.395L8.046,8.395z
		 M4.821,8.364c-2.111,0-2.629-1.582-2.629-3.413c0-1.839,0.518-3.354,2.629-3.354c2.002,0,2.581,1.515,2.581,3.354
		C7.402,6.765,6.912,8.364,4.821,8.364L4.821,8.364z"/>
	<path fill="#0072BC" d="M46.74,3.078v5.319c-0.566,0.16-1.1,0.246-1.59,0.213c-1.019-0.07-1.305-0.35-1.305-1.506V3.078h-1.926
		c0,0-0.02,4.219,0,4.686c0.017,0.468-0.048,2.066,3.236,2.066c1.607,0,3.508-0.364,3.508-0.364V3.078L46.74,3.078L46.74,3.078z"/>
	<path fill="#0072BC" d="M30,9.724V4.405c0.566-0.16,1.1-0.246,1.59-0.213c1.016,0.07,1.305,0.347,1.305,1.503v4.026h1.926
		c0,0,0.017-4.219,0-4.686c-0.017-0.468,0.048-2.066-3.236-2.066c-1.607,0-3.511,0.364-3.511,0.364v6.389H30V9.724z"/>
</g>
</svg>
